<svg id="レイヤー_1" data-name="レイヤー 1" xmlns="http://www.w3.org/2000/svg" viewBox="0 0 900 70"><title>logo</title><path d="M44.258,35c1.946,3.323,3,6.241,3,8.836,0,3.487-2.027,4.946-4.134,4.946-1.541,0-3.568-1.135-5.108-1.947a31.357,31.357,0,0,0-15.727-4.215C15.4,42.624,9.48,47.245,9.48,51.7c0,3.567,2.837,5.188,7.539,5.756,5.756.729,10.864-.162,14.755-.162,3.081,0,5.026.324,5.026,1.865,0,1.864-2.513,5.026-13.133,5.026-8.837,0-19.781-2.676-19.781-11.27,0-7.215,8.593-13.7,19.051-13.7,7.54,0,12.4,1.3,15.4,1.7,1.7.244,2.027-.323,2.027-1.135,0-3-4.459-9.565-9.08-15.807a57.6,57.6,0,0,1-14.673,1.863C7.7,25.842,1.7,20.087.076,13.682c-.4-1.621.892-2.27,2.026-1.459,3.73,2.676,8.756,8.35,17.349,8.35a45.961,45.961,0,0,0,8.756-.811c-3.162-4.7-4.54-8.188-4.54-11.754,0-2.27,1.216-5.189,4.7-5.189,2.432,0,4.54,1.54,7.134,3a64.251,64.251,0,0,0,9.242,4.216c2.432.891,3.648,1.7,3.648,3.485,0,1.459-1.3,2.918-3.081,4.216a35.937,35.937,0,0,1-9.4,4.782C39.314,27.383,42.07,31.356,44.258,35ZM29.018,9.143c0,2.675,2.107,6.566,3.891,9.322a20.589,20.589,0,0,0,6.08-3.08c1.3-1.135,1.3-2.189.081-3.324a52.344,52.344,0,0,0-7.3-4.459C29.828,6.629,29.018,7.278,29.018,9.143Z" fill="#fff"/><path d="M118.191,43.678c0,3.243-1.54,5.27-4.053,5.27-2.838,0-2.919-5.189-3.811-9.486-1.378-6.567-4.783-12.16-9.484-12.16-6,0-12.566,15.566-17.268,24.078-2.919,5.269-4.216,7.053-7.783,7.053-6.809,0-13.863-8.27-13.863-17.592,0-6.485.892-9,.892-12.647,0-4.3-1.135-5.594-4.864-9.891-1.135-1.3-.243-2.432,1.459-2.107,5.27.972,10.3,5.836,10.3,9.728,0,4.135-2.919,9.08-2.919,14.43,0,7.459,5.027,10.944,8.269,10.944,2.27,0,4.621-3.809,7.054-7.539,7.62-11.674,12.565-20.429,19.213-20.429a13.453,13.453,0,0,1,10.052,4.7C115.435,32.247,118.191,38.409,118.191,43.678Z" fill="#fff"/><path d="M144.86,42.868a40.122,40.122,0,0,0-7.3,8.268c-1.865,2.838-4.783,8.189-5.675,9.486a5.637,5.637,0,0,1-4.458,2.756,3.157,3.157,0,0,1-3-3.244c0-1.945,1.054-3.728,2.432-5.592a179.027,179.027,0,0,0,10.7-15.485A112.832,112.832,0,0,0,144.7,24.221a81.569,81.569,0,0,1-11.836.892c-3.485-.081-5.107-.568-6.809-2.189a10.2,10.2,0,0,1-3.406-6.81c0-1.3.893-1.783,2.027-.891,4.865,3.81,7.053,4.621,12,4.7a56.5,56.5,0,0,0,9.809-.81,53.043,53.043,0,0,0,1.865-7.215c.405-2.838.162-3.486-1.541-4.459-2.189-1.216-3.729-1.621-3.729-2.675,0-1.136,1.946-2.108,4.783-2.108,3.486,0,8.107,2.108,8.107,4.3,0,1.3-1.3,4.459-4.135,11.27a77.268,77.268,0,0,0,12-3.811c2.35-.973,4.621-2.189,6.485-2.189s3.892,1.216,3.892,3.162c0,1.541-1.865,2.351-5.189,3.486a178.3,178.3,0,0,1-19.375,4.621C147.454,28.6,144.455,34.68,141.7,41c9.647-7.459,20.673-10.458,29.185-9.567,3.891.406,7.133,2.27,7.133,4.459s-6.485,6.648-9.889,8.35c-1.785.892-2.756-.08-1.785-1.621a28.933,28.933,0,0,0,2.109-3.891c.811-1.865.324-2.594-2.189-2.756A32.445,32.445,0,0,0,144.86,42.868ZM184.5,60.946c0,2.756-4.621,4.215-11.592,4.215-11.755,0-22.213-4.215-23.267-15a1.208,1.208,0,0,1,2.269-.81c4.459,7.783,10.377,9.89,19.376,9.89,3.486,0,7.3-.406,9.323-.406C182.882,58.837,184.5,59.325,184.5,60.946Z" fill="#fff"/><path d="M240.2,63.216a2.771,2.771,0,0,1-2.676,2.756c-1.865,0-2.594-.811-4.459-3.08a30.561,30.561,0,0,0-11.106-9.08c-.73,6.89-3.972,11.349-11.674,11.349-7.539,0-10.945-3.566-10.945-7.945,0-5.918,6.486-9.241,13.62-9.241a41.909,41.909,0,0,1,4.621.243c.162-3.081.162-6.567.081-10.458a54.605,54.605,0,0,1-7.377.487c-8.675,0-11.431-1.784-11.431-5.594.081-3.567,1.3-4.379,3.08-1.784,1.3,1.864,2.271,2.919,5.351,2.919a59.562,59.562,0,0,0,10.377-.893c-.081-3-.162-7.944-.405-12.727-5.351,1.378-9.972,2.756-12.241,3.486a39.618,39.618,0,0,1-9,1.7,10.993,10.993,0,0,1-9.727-7.539c-.406-1.459.648-2.188,2.107-1.379,2.188,1.3,5.188,3.082,8.188,3.082,4.459,0,12.971-2.108,20.43-4.3-.244-2.756-.487-5.188-.73-6.729-.324-1.459-.811-1.865-2.188-2.513-.812-.405-2.027-.649-2.027-1.7,0-1.46,2.513-3.082,4.377-3.082,2.189-.08,6,1.541,6,3.568,0,1.784-.163,5.755-.244,8.917,5.351-1.621,9.647-3.08,12.16-3.08,3.567,0,5.432,1.783,5.432,3.566,0,2.028-4.135,2.19-7.864,2.758-3.162.486-6.566,1.215-9.809,2.026-.081,3.324,0,7.539,0,13.133a32.941,32.941,0,0,0,8.026-2.837,2.446,2.446,0,0,0,1.3-2.6c-.162-1.135-.568-2.512-.811-3.647-.243-1.055.729-1.541,1.864-.892,2.92,1.7,6.162,4.215,6.162,6.4,0,2.351-1.621,3.729-3.891,4.864a49.414,49.414,0,0,1-12.647,3.73c.081,4.459.081,8.674.081,11.916a32.683,32.683,0,0,1,15.078,8.188C239.385,59.405,240.2,61.189,240.2,63.216ZM217.172,52.109a26.093,26.093,0,0,0-5.756-.649c-4.378,0-8.026,1.865-8.026,4.621s2.189,3.973,5.432,3.973c4.944,0,7.134-2.514,7.944-6C216.928,53.407,217.01,52.757,217.172,52.109Z" fill="#fff"/><path d="M313.4,29.653c0,1.378-1.135,2.108-3.082,2.108-1.783,0-4.053-.081-6.647-.081A158.457,158.457,0,0,0,285.024,33.3c2.6,1.541,3.648,3.324,3.648,4.621,0,1.216-.81,2.838-1.459,4.378a44.8,44.8,0,0,1-22.294,23.834c-2.675,1.3-4.54-1.3-1.945-3.162,9.565-6.729,17.672-16.619,18.4-24.321.164-1.621.164-2.594-1.863-4.459-8.27,1.461-17.43,3.973-20.754,3.973-2.838,0-6.323-3.973-6.891-7.539-.162-1.216.81-2.026,2.107-1.378,2.108,1.053,4.054,2.594,6.729,2.594,4.621,0,24.483-3.242,31.049-4.378,7.459-1.3,11.918-2.27,13.944-2.27C309.182,25.194,313.4,26.977,313.4,29.653ZM265.162,14.088c-.729-1.459.082-2.514,1.541-1.946,2.918,1.216,4.7,1.864,7.133,1.864,9.324,0,14.918-3.971,17.592-3.971,2.189,0,5.676,1.053,5.676,3.08,0,1.378-1.541,2.594-4.053,3.323-2.758.812-12.242,3.082-18.891,3.082A10.3,10.3,0,0,1,265.162,14.088Zm48.642,2.35a2.7,2.7,0,0,1-2.757,2.838c-1.865,0-2.431-1.378-4.3-3.567-1.378-1.621-3.243-3.324-4.864-4.865a1.225,1.225,0,0,1,.973-2.188C308.129,9.061,313.8,12.629,313.8,16.438Zm6.89-7.62a2.6,2.6,0,0,1-2.674,2.838c-1.217,0-2.027-.648-3.568-2.351a41.015,41.015,0,0,0-6-5.026c-1.3-.974-.73-2.351.811-2.351C314.452,2.008,320.694,4.684,320.694,8.818Z" fill="#fff"/><path d="M386.763,26.735a2.214,2.214,0,0,1-2.352,2.351c-1.783,0-5.837-.974-9.242-.974-2.189,0-5.512.162-9,.488-.811,17.348-6.891,28.049-21,34.778-3.243,1.541-4.945-1.054-1.865-3.162,11.836-8.026,16.214-15.727,17.106-30.968-3.891.485-8.756,1.3-12.809,2.026a111.906,111.906,0,0,1-.324,12.566c-.244,2.352-.892,4.3-2.676,4.378-1.945.081-3.486-2.026-3.486-5.27,0-2.188,1.216-4.377,1.3-10.7-8.593,1.621-12.889,3.08-15.727,3.08s-6.647-3.971-6.891-7.782c-.08-1.378.649-1.945,2.189-1.054C324.1,27.626,326.69,29,328.96,29c2.433,0,8.187-.73,13.376-1.459a45.876,45.876,0,0,0-.892-7.863c-.324-1.459-.648-2.027-2.756-3.162-1.945-1.135-3-1.3-3-2.27,0-1.216,2.758-2.027,4.3-2.027,3.244,0,6.567,1.865,7.053,3.568.406,1.459.324,5.917.406,10.944,3.81-.568,9-1.459,13.133-2.108a81.655,81.655,0,0,0-.648-10.377c-.406-2.513-.811-3.242-2.432-4.135-1.541-.81-3.082-1.3-3.082-2.432,0-1.3,3.082-1.945,4.541-1.945,3.891,0,7.133,2.35,7.458,4.135.243,1.215-.163,2.836-.163,5.836,0,1.946.082,4.783,0,8.026,8.026-1.217,10.3-2.027,12.729-2.027C381.655,21.708,386.763,23.816,386.763,26.735ZM372.413,9.711a1.226,1.226,0,0,1,.973-2.19c5.269.405,10.944,3.973,10.944,7.782a2.7,2.7,0,0,1-2.756,2.838c-1.865,0-2.432-1.379-4.3-3.567A68.654,68.654,0,0,0,372.413,9.711Zm18.808-2.028a2.6,2.6,0,0,1-2.675,2.837c-1.216,0-2.027-.647-3.568-2.35a41.136,41.136,0,0,0-6-5.027c-1.3-.973-.73-2.35.81-2.35C384.978.873,391.221,3.549,391.221,7.683Z" fill="#fff"/><path d="M427.458,18.3a134.427,134.427,0,0,1-9.972,11.43,11.935,11.935,0,0,1,1.054.731c1.379,1.216,1.784,2.269,2.026,4.7a165.065,165.065,0,0,1-.08,24.564c-.243,2.513-1.865,3.728-3.649,3.728-2.431,0-3.728-3-3.728-5.755,0-1.7.648-3.161,1.054-5.432a83.727,83.727,0,0,0,.567-16.618,5.548,5.548,0,0,0-.891-2.433c-8.351,7.863-18.4,15.079-27.159,19.051-3.162,1.46-4.621-1.621-2.027-3.243,15.079-9.4,30.887-23.428,36.075-32.995,1.461-2.675,1.3-3.81-1.377-6.81-1.459-1.621-.892-2.512,1.053-2.512,4.216,0,9.567,3.971,9.567,6.728C429.971,15.061,428.593,16.844,427.458,18.3Z" fill="#fff"/><path d="M447.562,50.812c1.945.972,4.135,1.054,6.891-.162,13.538-6,27.239-17.755,36.319-27.239a1.767,1.767,0,0,1,2.836,2.107C486.717,35.815,473.1,47.813,458.1,56c-2.675,1.459-4.944,2.836-7.052,2.836-3.81,0-9.08-4.539-9.809-9-.244-1.459.811-2.188,1.945-1.54S446.427,50.245,447.562,50.812ZM444.886,15.3c6,.973,11.107,4.054,13.862,7.459,2.271,2.756,2.514,7.053,0,8.107-1.944.811-3.485.243-6.485-3.648a57.87,57.87,0,0,0-8.916-8.918C441.482,16.762,442.374,14.9,444.886,15.3Z" fill="#fff"/><path d="M511.753,20.678c0-4.682,0-5.873-.17-8.086s-1.108-3.405-6.385-4.086c-3.15-.425-2.979-3.064.341-3.064,1.957,0,5.873.255,8.937.255,5.108,0,10.386-.341,17.791-.341,24.345,0,30.815,16.088,30.815,26.644,0,7.831-1.873,16.939-11.662,25.281-7.746,6.47-16.173,7.746-24.6,7.746-5.277,0-12.682-.6-15.747-.6h-5.959c-2.638,0-3.15-2.638,0-3.149,5.193-.681,5.959-1.532,6.3-3.235.341-1.447.341-5.532.341-11.406Zm7.065,28.942c0,6.214,0,7.917.852,8.683,1.191,1.447,5.787,2.383,11.32,2.383,18.217,0,24.09-12.769,24.09-24.089,0-13.28-5.022-27.495-25.878-27.495-5.531,0-8.937.68-9.7,1.447-.6.6-.681,1.617-.681,8.853Z" fill="#fff"/><path d="M572.1,10.209c-1.532.51-2.469,2.042-4.086,7.405-.85,2.81-3.66,2.81-3.319-.255a101.621,101.621,0,0,0,.936-12.683,1.623,1.623,0,0,1,2.809-.852c1.191,1.7,2.723,1.873,5.277,1.873h38.306c4,0,4.511-.766,6.3-2.043a1.469,1.469,0,0,1,2.3,1.7,50.8,50.8,0,0,0-1.192,10.811c0,3.916-2.979,3.916-3.4.511-.427-3.83-1.107-5.533-2.213-6.214-1.193-.682-3.32-.511-17.961-.511-.512,0-.6.085-.6,1.022V49.62c0,3.576.085,5.277.171,7.151.085,3.064.766,4.086,7.321,4.767,3.4.341,3.4,3.064-.427,3.064-5.107,0-7.234-.171-10.554-.171-3.15,0-9.449.171-10.981.171-2.809,0-3.15-2.809.085-3.064,6.214-.681,6.809-1.618,7.065-4.767.085-1.022.171-3.235.171-7.576V11.231c0-1.278-.086-1.449-.766-1.449C575.422,9.782,573.38,9.868,572.1,10.209Z" fill="#fff"/><path d="M640.964,50.557c0,4.256.17,6.043.255,7.235.341,2.213,1.107,2.979,6.895,3.66,3.065.427,2.98,3.15-.425,3.15-2.64,0-4.767-.171-10.386-.171-3.574,0-7.661.171-9.7.171-2.81,0-3.15-2.639.085-3.064,5.277-.852,5.788-1.7,5.958-4.172.171-2.638.171-5.192.171-10.469V21.36c0-4.767-.085-6.13-.256-8.428-.256-3.064-1.106-3.745-6.214-4.341-2.809-.341-3.064-3.064.341-3.064,1.532,0,5.617.17,7.405.17,3.916,0,10.9-.255,15.067-.255,14.3,0,20.94,7.575,20.94,16.343A17.74,17.74,0,0,1,664.032,36.6c-4.937,3.83-11.066,5.788-18.727,5.788-1.191,0-3.575-.085-4.341-.085Zm.766-13.365c1.787.851,5.618,1.022,8.086,1.022,8.683,0,13.535-4,13.535-13.96,0-8.853-4.767-15.067-15.237-15.067-3.575,0-5.192.341-6.3,1.022-.682.34-.852,1.191-.852,3.745V35.83C640.964,36.6,641.134,36.938,641.73,37.192Z" fill="#fff"/><path d="M699.1,44.468c0,.99-.924,1.524-2.85,1.676a32.153,32.153,0,0,1-4,12.877c-2.772,4.725-7.779,8.459-14.556,10.516-2.08.838-2.927-1.219-1.079-2.438,5.315-2.743,8.7-5.715,10.937-9.6,2.387-3.962,3-8.3,3.312-14.554.076-1.143.384-1.524,1.462-1.372C695.249,41.649,699.1,43.02,699.1,44.468ZM689.011,41.8c0,1.6-1.233,2.286-3.465,2.286a1.828,1.828,0,0,1-2.08-2.057c0-3.81.231-11.506,0-17.831a38.66,38.66,0,0,1-4.313,3.43c-1.926,1.371-3.389-.381-1.771-2.058,7.778-8,11.937-15.392,13.015-23.773A1.287,1.287,0,0,1,691.861.654c2.542.229,7.085,1.448,7.393,2.972.154.991-1.155,1.6-3.157,1.677a32.746,32.746,0,0,1-1.31,3.352h7.162c1.233-1.372,2.619-2.743,3.389-2.743,1.233,0,5.854,4.191,5.854,6.1,0,.914-1.541,1.523-3.39,1.752a71.625,71.625,0,0,1-5.775,7.773h7.547c.925-1.3,2.08-2.515,2.773-2.515,1.386,0,5.545,3.124,5.545,4.648,0,.914-1.078,1.6-2.311,2.057-.076,3.811,0,12.345.077,14.4,0,2.362-1.155,2.9-3.08,2.9-1.772,0-2.234-1.371-2.234-2.591V40.2H689.011Zm4.313-30.1a46.425,46.425,0,0,1-5.776,8.305,15.571,15.571,0,0,1,2.772,1.525h7.086a50.314,50.314,0,0,0,4.621-9.83Zm-4.39,25.45h7.856V24.58h-7.7c-.154,1.982-.154,6.63-.154,7.926ZM749.007,64.2c0,1.9-3,4.343-25.185,4.343-22.411,0-23.721-.992-23.721-7.773,0-2.362.308-12.039-.154-17.983-.077-1.066.231-1.371,1.309-1.371,1.926,0,7.239.762,7.239,2.21,0,.99-1.231,1.524-3,1.828-.154,4.572-.23,11.431-.154,14.859.077,2.82.232,3.353,18.33,3.353,15.711,0,18.253-.839,19.562-3.048a34.8,34.8,0,0,0,2.234-5.792c.461-1.676,2.463-1.447,2.463.382C747.7,63.06,749.007,61.918,749.007,64.2ZM710.344,37.153c.077-3.81.155-9.678.155-12.573h-7.934a2.85,2.85,0,0,1-.846.382V37.153Zm7.779-16.23c-1,0-1.694-.3-1.694-1.524,0-1.143.693-1.523,1.694-1.523h7.7a116.266,116.266,0,0,0-.846-14.707c-.155-.838.076-1.219,1-1.219,2.464,0,8.549.609,8.549,2.286,0,1.067-.848,1.905-3.39,2.514,0,3.353.078,6.858,0,11.126h7.626c1-1.3,2.155-2.439,2.772-2.439,1.694,0,6.391,3.429,6.391,4.723,0,.915-1.154,1.982-2.7,2.745.077,8.609-.385,23.087-2.927,29.183-1.694,4.038-4.544,6.4-8.625,6.4-1.926,0-2.387-.609-3-1.753a4.887,4.887,0,0,0-2.542-2.132c-.925-.458-1.31-.992-1.155-1.753a1.347,1.347,0,0,1,1.54-.915,24.374,24.374,0,0,0,4.852.457c2.31,0,3.62-2.057,4.159-3.276,2.234-5.029,2.772-19.354,2.234-28.193h-8.627c-.385,19.43-3.7,30.631-18.637,38.556-2.233,1.143-3.389-.914-1.464-2.438,12.94-9.83,14.711-18.821,14.787-36.118Z" fill="#fff"/><path d="M770.8,36.01c1.155-1.447,2.772-3.124,3.542-3.124,1.695,0,5.853,3.277,5.853,4.572,0,.838-1.154,1.905-2.618,2.667-.23,6.477-.847,16.916-2.541,22.4-2,6.553-7.086,7.162-10.474,7.162-1.387,0-2.389-.152-2.85-1.6a4.633,4.633,0,0,0-2.542-2.895,1.147,1.147,0,0,1,.616-2.21,33.056,33.056,0,0,0,5.777.762c2.234,0,3.542-1.372,4.236-3.277,1.848-4.724,2.387-14.706,2.387-21.411h-9.7c-.231,2.134-.385,3.733-.462,4.266-.155,1.525-1.078,1.83-2.85,1.83-2.849.075-3.08-.838-2.849-2.21a120.171,120.171,0,0,0,2.541-22.859c0-.762.385-1.067,1.309-.99,1.387.075,3.7,1.371,5.084,2.59h7.163c0-4.038.076-9.3.076-11.963H756.859c-1,0-1.7-.3-1.7-1.524,0-1.143.693-1.524,1.7-1.524h14.4C772.417,5.226,773.8,3.7,774.727,3.7c1.617,0,6.468,3.581,6.468,5.258,0,1.067-1.539,1.828-3.08,2.362-.154,4.8,0,12.725,0,15.088s-1.232,2.895-3.388,2.895a2.338,2.338,0,0,1-2.388-2.591V24.733h-8.394c-.309,3.048-.771,7.467-1.156,11.277Zm32.809,24c4.774-.382,9.01-.839,12.783-1.373a34.816,34.816,0,0,0-2.848-4.037c-.771-.992.23-2.439,1.771-1.753,7.7,3.428,10.551,9.22,10.551,12.344a3.139,3.139,0,0,1-3.312,3.428c-1.541,0-2.234-.761-2.927-2.361-.461-1.219-.924-2.972-1.694-4.725a191.664,191.664,0,0,1-33.578,5.106c-.385,1.751-1.078,3.276-2.388,3.276-1.617-.077-2.773-3.657-3.311-7.773-.078-.685.23-.99.846-.99,7.163-.152,13.478-.381,19.1-.762V48.049h-8.549v3.276c0,1.6-1.154,2.286-3.388,2.286a1.8,1.8,0,0,1-2-2.057c0-4.648.385-15.391-.308-21.792a.945.945,0,0,1,1.154-.991,19.226,19.226,0,0,1,6.008,2.515h6.932c-.155-3.811-.309-6.935-.54-8.687-.077-.686.385-1.066,1.078-1.066,1.309,0,8.7.228,8.7,2.209,0,1.6-1.694,2.21-4.081,2.743v4.8H812c1.078-1.372,2.31-2.744,3.08-2.744,1.541,0,6.008,3.277,6.008,4.954,0,.99-1.232,1.676-2.618,2.209-.155,3.962,0,11.125,0,13.259,0,2.361-1.156,2.9-3.235,2.9-1.771,0-2.311-1.372-2.311-2.591V48.049h-9.318Zm-21.95-42.366c-.078-.686.23-.991.847-.991,3,0,5.93-.076,8.626-.153a63.291,63.291,0,0,0,5.931-14.4c.153-.686.538-1.219,1.386-.99,2.618.686,7.239,2.972,7.239,4.419,0,1.219-1.386,1.6-3.7,1.372a75.906,75.906,0,0,1-6.547,9.524c6.777-.228,12.553-.61,17.482-1.066a31.572,31.572,0,0,0-4.082-4.42c-.923-.914-.154-2.514,1.464-2.057,8.086,2.133,11.86,7.391,12.4,10.743a3.138,3.138,0,0,1-2.85,3.886c-1.464.153-2.311-.456-3.235-1.9-.54-.838-1.078-2.057-1.771-3.277a147.148,147.148,0,0,1-27.572,3.506c-.385,1.675-1.078,3.2-2.387,3.2C783.276,24.962,782.2,21.761,781.658,17.647ZM798.6,45c0-3.658-.077-7.315-.077-10.668h-8.009l-.386.076c-.153,1.676-.153,6.324-.153,7.772V45Zm5.007-10.668V45H813c0-3.506.077-8.153.077-10.668Z" fill="#fff"/><path d="M898.719,26.1a5.529,5.529,0,0,0-3.08,2.211c-1.156,1.523-1.772,1.98-3.621,1.371C882.931,26.79,872.3,19.4,865.294,7.512c-7.316,10.668-18.945,22.174-34.58,28.193-2,.762-3.158-1.371-1.232-2.438,15.172-8.382,26.031-19.736,31.884-32.384A1.154,1.154,0,0,1,862.83.12c2.849.84,6.932,2.745,6.623,4.039-.154.61-.847.992-2.31.686,7.7,10.592,19.253,16.23,31.191,18.821C900.722,24.124,900.26,25.571,898.719,26.1ZM883.547,41.267c1.695-2.513,3.928-5.485,5.16-5.485,1.617,0,7.239,4.8,7.239,6.705,0,1.143-1.463,1.829-4.235,1.829h-27.88c1.463.609,2.541,1.371,2.464,2.209,0,1.372-2.155,1.753-4.081,1.753a114.669,114.669,0,0,1-7.239,12.191c9.395-.3,17.482-1.142,24.105-1.981a46.493,46.493,0,0,0-4.544-5.029c-1.078-1.067,0-2.82,1.772-2.134,9.165,3.2,13.708,9.221,14.324,12.954.463,2.515-.693,4.114-2.849,4.42-1.772.228-2.618-.61-3.7-2.363-.77-1.219-1.618-2.972-2.772-4.8-9.088,2.286-21.41,3.887-37.738,5.181-.616,1.753-1.618,3.277-2.927,3.124-1.694-.3-2.464-4.038-2.387-8.3,0-.762.385-.914,1-.914,3.851.076,7.624.076,11.167,0a80.128,80.128,0,0,0,6.7-16.306H835.412c-1,0-1.694-.306-1.694-1.525,0-1.142.693-1.524,1.694-1.524Zm-33.271-9.143c-1,0-1.694-.305-1.694-1.525,0-1.142.693-1.523,1.694-1.523H867.99c1.617-2.439,3.774-5.258,5.006-5.258,1.54,0,7.085,4.649,7.085,6.554,0,1.067-1.617,1.752-4.236,1.752Z" fill="#fff"/></svg>